Coordinates
version=1
nRows=14
nColumns=40
inDegrees=yes

Units are S.I. units (second, meters, Newtons, ...)
If the header above contains a line with 'inDegrees', this indicates whether rotational values are in degrees (yes) or radians (no).

endheader
time	pelvis_tilt	pelvis_list	pelvis_rotation	pelvis_tx	pelvis_ty	pelvis_tz	hip_flexion_r	hip_adduction_r	hip_rotation_r	knee_angle_r	knee_angle_r_beta	ankle_angle_r	subtalar_angle_r	mtp_angle_r	hip_flexion_l	hip_adduction_l	hip_rotation_l	knee_angle_l	knee_angle_l_beta	ankle_angle_l	subtalar_angle_l	mtp_angle_l	lumbar_extension	lumbar_bending	lumbar_rotation	arm_flex_r	arm_add_r	arm_rot_r	elbow_flex_r	pro_sup_r	wrist_flex_r	wrist_dev_r	arm_flex_l	arm_add_l	arm_rot_l	elbow_flex_l	pro_sup_l	wrist_flex_l	wrist_dev_l
     11.75833333	      5.40837561	     -9.65869302	     -2.45226097	     -0.39164779	      1.20792439	      0.02061844	     69.73125685	      1.16816285	     -4.58177645	    104.53419232	      1.82446584	     17.75653980	    -17.68582636	      0.00000000	     26.78321233	    -12.39269343	     11.71449876	     42.76931065	      0.74646529	    -12.20822314	    -35.00448158	      0.00000000	    -70.18495541	      6.53474351	     16.86701967	     77.48230335	    -10.15428541	      4.86373641	     53.60339509	     10.10107770	      0.00000000	      0.00000000	     89.76349901	     -0.32399767	     32.95578569	     25.01995035	     80.99882155	      0.00000000	      0.00000000
     11.76666667	      5.55506912	     -9.56475228	     -2.51758411	     -0.39185740	      1.20904126	      0.02060170	     69.97568364	      1.37322912	     -4.35793955	    103.26347292	      1.80228760	     18.04848907	    -17.67194821	      0.00000000	     26.70731087	    -12.18600609	     11.70048388	     44.63712312	      0.77906477	    -12.28568799	    -35.15629610	      0.00000000	    -70.44774516	      6.42862834	     16.79004799	     77.54458818	    -10.13680149	      4.89396358	     53.71084885	     10.10037794	      0.00000000	      0.00000000	     89.75895496	     -0.44410859	     32.79436116	     25.27114318	     80.96807310	      0.00000000	      0.00000000
     11.77500000	      5.18331742	     -9.65112455	     -2.52715418	     -0.39244801	      1.20907719	      0.02029324	     70.56720047	      1.42009306	     -4.58684192	    101.43780623	      1.77042370	     17.92296970	    -18.06746262	      0.00000000	     27.59531498	    -12.01886105	     12.06436571	     47.00329230	      0.82036221	    -12.45845044	    -36.06720447	      0.00000000	    -70.20157137	      6.56625924	     16.88547966	     77.60839044	    -10.32584989	      5.24953944	     53.81789040	      9.93283323	      0.00000000	      0.00000000	     89.74689490	     -0.46983003	     32.62405699	     25.36337033	     81.08650175	      0.00000000	      0.00000000
     11.78333333	      5.03265189	     -9.60336683	     -2.40671617	     -0.39293306	      1.20954720	      0.01987819	     70.59972874	      1.52731518	     -4.48397112	     99.56489537	      1.73773524	     17.90840835	    -18.43070862	      0.00000000	     28.36809185	    -11.65159327	     12.48530639	     49.51711259	      0.86423665	    -12.73262020	    -36.62748532	      0.00000000	    -70.16551613	      6.68782178	     16.81386512	     77.63493098	    -10.56803001	      5.63987146	     53.98631189	      9.88568466	      0.00000000	      0.00000000	     89.74365588	     -0.49784513	     32.40255086	     25.54656548	     81.17809596	      0.00000000	      0.00000000
     11.79166667	      4.97224701	     -9.47549015	     -2.34164829	     -0.39327344	      1.21001602	      0.01945434	     70.25022921	      1.60580742	     -4.36414384	     97.39743123	      1.69990586	     17.95124812	    -18.69208104	      0.00000000	     29.14479216	    -11.15481533	     12.92362642	     52.28400446	      0.91252802	    -12.66536753	    -37.11549796	      0.00000000	    -70.18049670	      6.72162694	     16.67037973	     77.67100931	    -10.71046017	      5.87633885	     54.10841568	      9.76675892	      0.00000000	      0.00000000	     89.74141346	     -0.54446114	     32.23943600	     25.70026760	     81.27062442	      0.00000000	      0.00000000
     11.80000000	      4.88069880	     -9.37432113	     -2.21611352	     -0.39360356	      1.21026980	      0.01894738	     69.64281340	      1.65219249	     -4.31063772	     94.96833099	      1.65751006	     17.84280406	    -18.94184590	      0.00000000	     30.12906785	    -10.69114678	     13.31813020	     55.20878975	      0.96357516	    -12.79178730	    -37.47746680	      0.00000000	    -70.14936703	      6.81284626	     16.54356336	     77.68654812	    -10.93115587	      6.16508911	     54.24782409	      9.62060907	      0.00000000	      0.00000000	     89.74193931	     -0.55764727	     32.07990661	     25.83414368	     81.35511309	      0.00000000	      0.00000000
     11.80833333	      5.10568603	     -8.94427518	     -2.23741780	     -0.39360825	      1.21099049	      0.01845509	     68.46806630	      1.70204063	     -3.87818205	     92.45601320	      1.61366184	     17.75620116	    -19.03477548	      0.00000000	     30.71592993	     -9.98306067	     13.34453471	     58.13908088	      1.01471839	    -12.71892922	    -37.60239080	      0.00000000	    -70.38246792	      6.57437315	     16.13077341	     77.68100734	    -11.00118606	      6.18316323	     54.37985879	      9.57756141	      0.00000000	      0.00000000	     89.75052356	     -0.61653796	     31.96264356	     26.03537427	     81.36183295	      0.00000000	      0.00000000
     11.81666667	      4.86044284	     -8.94316172	     -1.96674821	     -0.39395691	      1.21066078	      0.01774431	     67.51056576	      1.60188824	     -4.08026454	     89.42679922	      1.56079209	     17.20681400	    -19.50201365	      0.00000000	     32.15791837	     -9.49947441	     13.96865988	     61.34509002	      1.07067380	    -12.37122134	    -37.86637793	      0.00000000	    -70.16695174	      6.86768094	     16.03945954	     77.72424616	    -11.27346989	      6.63421054	     54.44348445	      9.32781343	      0.00000000	      0.00000000	     89.74938906	     -0.60203765	     31.85922393	     26.07569561	     81.45933931	      0.00000000	      0.00000000
     11.82500000	      5.05258933	     -8.47763151	     -1.98784976	     -0.39378601	      1.21075205	      0.01726517	     65.95156074	      1.62222627	     -3.70900563	     86.58967248	      1.51127488	     16.96145951	    -19.71062038	      0.00000000	     33.04247071	     -8.76796545	     13.93398560	     64.56950367	      1.12695044	    -12.15084908	    -37.87370167	      0.00000000	    -70.28171143	      6.60318540	     15.57434543	     77.71635241	    -11.32012928	      6.70875141	     54.44931993	      9.27386281	      0.00000000	      0.00000000	     89.75252206	     -0.62867312	     31.83344543	     26.15403561	     81.48273964	      0.00000000	      0.00000000
     11.83333333	      5.05737695	     -8.28936551	     -1.66844197	     -0.39376811	      1.21055851	      0.01650875	     64.26585289	      1.36224475	     -3.82570832	     83.44195913	      1.45633692	     16.48678126	    -19.96176724	      0.00000000	     34.17978304	     -8.03620210	     14.45122118	     67.75536942	      1.18255428	    -11.29180710	    -37.83843581	      0.00000000	    -70.23361876	      6.80189086	     15.26148179	     77.76462173	    -11.38647486	      6.86589472	     54.35580409	      9.24144811	      0.00000000	      0.00000000	     89.76129441	     -0.67374943	     32.03667856	     26.16426488	     81.47290108	      0.00000000	      0.00000000
     11.84166667	      4.91709529	     -8.20669430	     -1.43885933	     -0.39389752	      1.20996771	      0.01625033	     62.69281404	      1.56645112	     -3.76065905	     80.15995927	      1.39905522	     15.50867444	    -21.03693729	      0.00000000	     35.87080153	     -7.60370286	     14.94040955	     71.19736866	      1.24262850	    -10.62565597	    -36.57585417	      0.00000000	    -70.04343526	      6.94249068	     15.05778241	     77.71335960	    -11.41491560	      6.95094363	     54.39164755	      8.95789768	      0.00000000	      0.00000000	     89.76436878	     -0.77017821	     32.22500473	     26.27525837	     81.55490418	      0.00000000	      0.00000000
     11.85000000	      5.01527146	     -7.97388681	     -1.29709352	     -0.39364218	      1.20961895	      0.01591492	     60.71241737	      1.61579928	     -3.62228965	     76.83093495	      1.34095278	     14.60088056	    -21.37735618	      0.00000000	     37.15839109	     -7.07451466	     15.06898055	     74.45127216	      1.29941983	     -9.65191531	    -35.99503267	      0.00000000	    -70.03883618	      6.90577277	     14.73629094	     77.66542263	    -11.34921238	      6.86201402	     54.32030713	      8.82655186	      0.00000000	      0.00000000	     89.76943316	     -0.86809163	     32.53692438	     26.32294641	     81.56647184	      0.00000000	      0.00000000
     11.85833333	      5.00314606	     -7.69244664	     -1.13830056	     -0.39353328	      1.20896895	      0.01551570	     58.84767427	      1.58969409	     -3.44237294	     73.55436368	      1.28376583	     13.34786070	    -21.76265719	      0.00000000	     38.69733228	     -6.43684112	     15.27550752	     77.85023859	      1.35874299	     -8.61191459	    -35.31135810	      0.00000000	    -69.91539696	      6.87717052	     14.35486716	     77.62069978	    -11.24536253	      6.72559482	     54.22796007	      8.81011991	      0.00000000	      0.00000000	     89.77545465	     -0.97706677	     32.84838187	     26.38894004	     81.52289228	      0.00000000	      0.00000000
     11.86666667	      5.18419669	     -7.06745170	     -1.05602071	     -0.39305607	      1.20849753	      0.01500954	     56.55212707	      1.30193130	     -2.95595303	     70.13453394	      1.22407854	     12.19149772	    -21.38466299	      0.00000000	     40.00528929	     -5.46598074	     15.17532643	     81.15333147	      1.41639283	     -7.84349423	    -35.37106912	      0.00000000	    -69.90446438	      6.58627911	     13.68422648	     77.48310248	    -11.17175184	      6.56377345	     54.21733286	      8.80612026	      0.00000000	      0.00000000	     89.78068866	     -1.01286092	     33.05984265	     26.37936149	     81.53402828	      0.00000000	      0.00000000
